<mxfile host="app.diagrams.net" modified="2023-11-16T12:36:13.835Z" agent="Mozilla/5.0 (Windows NT 10.0; Win64; x64) AppleWebKit/537.36 (KHTML, like Gecko) Chrome/119.0.0.0 Safari/537.36" version="22.1.2" etag="g_aQQi0lvcBjuMBvv4au" type="github">
  <diagram name="Page-1" id="sXPrm_Bt0p8oL9XMs3Nz">
    <mxGraphModel>
      <root>
        <mxCell id="0" />
        <mxCell id="1" parent="0" />
      </root>
    </mxGraphModel>
  </diagram>
</mxfile>
